<svg width="801" height="271" viewBox="0 0 801 271" fill="none" xmlns="http://www.w3.org/2000/svg">
<rect width="801" height="271" fill="#252525"/>
<path d="M472.929 36H457.057L444.806 67.728H452.742L419.606 158.55H413.51L412.054 162.516H418.146L413.228 176H420.871L446.693 106.595H456.355L462.03 91.1275H452.401L472.929 36Z" fill="#29ABE2"/>
<path d="M399.51 119.576L381.346 72.0906H392.724L386.902 55.83H375.123L367.54 36H360.631L395.818 129.269L399.51 119.576Z" fill="#29ABE2"/>
<path d="M395.818 129.269L400.073 140.548L412.879 106.595H422.687L428.363 91.1275H418.709L439.523 36H424.036L411.678 67.5734H419.32L395.818 129.269Z" fill="#FF3F60"/>
<path d="M386.085 151.411L384.34 146.652H379.569L374.647 133.167H371.296L348.737 71.6941H360.528L354.524 55.4334H342.665L335.534 36H326.071L357.498 120.476H360.933L370.518 146.652H375.436L377.181 151.411H372.374L374.992 158.55L370.284 158.554L371.732 162.516L376.428 162.512L381.365 176H390.325L381.346 151.411H386.085Z" fill="#FF3F60"/>
<path d="M457.057 36H439.523L418.709 91.1275H428.363L422.687 106.595H412.879L400.073 140.548L360.631 36H335.534L342.665 55.4334H354.523L360.528 71.6941H348.737L371.296 133.167H374.647L379.569 146.652H384.34L386.085 151.411H381.346L390.325 176H413.228L418.146 162.516H412.054L413.51 158.55H419.606L452.742 67.728H444.806L457.057 36Z" fill="#0C003F"/>
<path d="M318.742 226.654L324.543 207.406H330.414L321.502 233H316L307.123 207.406H312.977L318.742 226.654ZM355.957 220.783C355.957 223.303 355.512 225.512 354.621 227.41C353.731 229.309 352.453 230.773 350.789 231.805C349.137 232.836 347.238 233.352 345.094 233.352C342.973 233.352 341.08 232.842 339.416 231.822C337.752 230.803 336.463 229.35 335.549 227.463C334.635 225.564 334.172 223.385 334.16 220.924V219.658C334.16 217.139 334.611 214.924 335.514 213.014C336.428 211.092 337.711 209.621 339.363 208.602C341.028 207.57 342.926 207.055 345.059 207.055C347.192 207.055 349.084 207.57 350.736 208.602C352.401 209.621 353.684 211.092 354.586 213.014C355.5 214.924 355.957 217.133 355.957 219.641V220.783ZM350.613 219.623C350.613 216.939 350.133 214.9 349.172 213.506C348.211 212.111 346.84 211.414 345.059 211.414C343.289 211.414 341.924 212.105 340.963 213.488C340.002 214.859 339.516 216.875 339.504 219.535V220.783C339.504 223.396 339.985 225.424 340.945 226.865C341.906 228.307 343.289 229.027 345.094 229.027C346.863 229.027 348.223 228.336 349.172 226.953C350.121 225.559 350.602 223.531 350.613 220.871V219.623ZM382.221 224.475C382.022 227.229 381.002 229.396 379.162 230.979C377.334 232.561 374.92 233.352 371.92 233.352C368.639 233.352 366.055 232.25 364.168 230.047C362.293 227.832 361.356 224.797 361.356 220.941V219.377C361.356 216.916 361.789 214.748 362.657 212.873C363.524 210.998 364.76 209.562 366.366 208.566C367.983 207.559 369.858 207.055 371.991 207.055C374.944 207.055 377.323 207.846 379.127 209.428C380.932 211.01 381.975 213.23 382.256 216.09H376.983C376.854 214.438 376.391 213.242 375.594 212.504C374.809 211.754 373.608 211.379 371.991 211.379C370.233 211.379 368.914 212.012 368.035 213.277C367.168 214.531 366.723 216.482 366.7 219.131V221.064C366.7 223.83 367.116 225.852 367.948 227.129C368.791 228.406 370.116 229.045 371.92 229.045C373.549 229.045 374.762 228.676 375.559 227.938C376.368 227.188 376.83 226.033 376.948 224.475H382.221ZM402.473 227.727H393.227L391.469 233H385.862L395.389 207.406H400.276L409.856 233H404.249L402.473 227.727ZM394.651 223.455H401.049L397.832 213.875L394.651 223.455ZM419.86 228.764H431.057V233H414.587V207.406H419.86V228.764ZM442.046 233H436.772V207.406H442.046V233ZM468.028 211.678H460.188V233H454.915V211.678H447.181V207.406H468.028V211.678ZM482.497 218.938L487.823 207.406H493.589L485.187 223.719V233H479.825V223.719L471.423 207.406H477.206L482.497 218.938Z" fill="#F2F2F2"/>
</svg>
