<svg width="500" height="500" viewBox="0 0 500 500" fill="none" xmlns="http://www.w3.org/2000/svg">
<path d="M436.29 73H396.27L365.38 153H385.39L301.84 382H286.47L282.8 392H298.16L285.76 426H305.03L370.14 251H394.5L408.81 212H384.53L436.29 73Z" fill="#29ABE2"/>
<path d="M251.17 283.73L205.37 164H234.06L219.38 123H189.68L170.56 73H153.14L241.86 308.17L251.17 283.73Z" fill="#29ABE2"/>
<path d="M241.86 308.17L252.59 336.61L284.88 251H309.61L323.92 212H299.58L352.06 73H313.01L281.85 152.61H301.12L241.86 308.17Z" fill="#FF3F60"/>
<path d="M217.32 364L212.92 352H200.89L188.48 318H180.03L123.15 163H152.88L137.74 122H107.84L89.86 73H66L145.24 286H153.9L178.07 352H190.47L194.87 364H182.75L189.35 382L177.48 382.01L181.13 392L192.97 391.99L205.42 426H228.01L205.37 364H217.32Z" fill="#FF3F60"/>
<path d="M396.27 73H352.06L299.58 212H323.92L309.61 251H284.88L252.59 336.61L153.14 73H89.86L107.84 122H137.74L152.88 163H123.15L180.03 318H188.48L200.89 352H212.92L217.32 364H205.37L228.01 426H285.76L298.16 392H282.8L286.47 382H301.84L385.39 153H365.38L396.27 73Z" fill="#0C003F"/>
</svg>
