<svg width="500" height="500" viewBox="0 0 500 500" fill="none" xmlns="http://www.w3.org/2000/svg">
<path d="M500 250C500 111.929 388.071 0 250 0C111.929 0 0 111.929 0 250C0 388.071 111.929 500 250 500C388.071 500 500 388.071 500 250Z" fill="#121212"/>
<path d="M402 121H369.144L343.784 189.895H360.212L291.62 387.108H279.001L275.988 395.72H288.598L278.418 425H294.238L347.692 274.292H367.691L379.44 240.705H359.506L402 121Z" fill="#29ABE2"/>
<path d="M250.021 302.479L212.42 199.368H235.974L223.922 164.059H199.539L183.841 121H169.54L242.377 323.526L250.021 302.479Z" fill="#29ABE2"/>
<path d="M242.377 323.526L251.186 348.018L277.696 274.292H297.998L309.747 240.705H289.764L332.849 121H300.79L275.208 189.559H291.028L242.377 323.526Z" fill="#FF3F60"/>
<path d="M222.23 371.606L218.618 361.272H208.742L198.553 331.992H191.616L144.919 198.507H169.327L156.897 163.198H132.35L117.589 121H98L163.054 304.433H170.164L190.007 361.272H200.187L203.799 371.606H193.849L199.268 387.108L189.523 387.116L192.519 395.72L202.24 395.711L212.461 425H231.007L212.42 371.606H222.23Z" fill="#FF3F60"/>
<path d="M369.144 121H332.849L289.764 240.705H309.747L297.998 274.292H277.696L251.186 348.018L169.54 121H117.589L132.35 163.198H156.897L169.327 198.507H144.919L191.616 331.992H198.553L208.742 361.272H218.618L222.23 371.606H212.42L231.007 425H278.418L288.598 395.72H275.988L279.001 387.108H291.619L360.212 189.895H343.784L369.144 121Z" fill="#0C003F"/>
</svg>
