<svg width="299" height="24" viewBox="0 0 299 24" fill="none" xmlns="http://www.w3.org/2000/svg">
<path d="M2.435 11.0508V18H0.993591V0.9375H6.80609C8.57953 0.9375 9.97797 1.39062 11.0014 2.29688C12.0327 3.20312 12.5483 4.44922 12.5483 6.03516C12.5483 7.63672 12.0522 8.875 11.06 9.75C10.0756 10.6172 8.64594 11.0508 6.77094 11.0508H2.435ZM2.435 9.83203H6.80609C8.20453 9.83203 9.27094 9.5 10.0053 8.83594C10.7397 8.17188 11.1069 7.24609 11.1069 6.05859C11.1069 4.87891 10.7397 3.94141 10.0053 3.24609C9.27875 2.54297 8.24359 2.18359 6.89984 2.16797H2.435V9.83203ZM18.5848 18H17.1786V0H18.5848V18ZM32.1214 16.3945C31.2777 17.6211 29.93 18.2344 28.0784 18.2344C26.7269 18.2344 25.6995 17.8438 24.9964 17.0625C24.2933 16.2734 23.9339 15.1094 23.9183 13.5703V5.32031H25.3128V13.3945C25.3128 15.8086 26.2894 17.0156 28.2425 17.0156C30.2737 17.0156 31.5589 16.1758 32.098 14.4961V5.32031H33.5042V18H32.1448L32.1214 16.3945ZM38.158 11.543C38.158 9.55859 38.5955 7.98828 39.4705 6.83203C40.3533 5.66797 41.5486 5.08594 43.0564 5.08594C44.783 5.08594 46.0955 5.77344 46.9939 7.14844L47.0642 5.32031H48.3767V17.7422C48.3767 19.375 47.9197 20.668 47.0056 21.6211C46.0916 22.5742 44.8533 23.0508 43.2908 23.0508C42.408 23.0508 41.5642 22.8516 40.7595 22.4531C39.9627 22.0625 39.3337 21.5391 38.8728 20.8828L39.658 20.0391C40.6502 21.2578 41.8298 21.8672 43.197 21.8672C44.3689 21.8672 45.283 21.5195 45.9392 20.8242C46.5955 20.1367 46.9353 19.1797 46.9587 17.9531V16.3594C46.0603 17.6094 44.7517 18.2344 43.033 18.2344C41.5642 18.2344 40.3845 17.6484 39.4939 16.4766C38.6033 15.3047 38.158 13.7227 38.158 11.7305V11.543ZM39.5759 11.7891C39.5759 13.4062 39.9002 14.6836 40.5486 15.6211C41.197 16.5508 42.1111 17.0156 43.2908 17.0156C45.0173 17.0156 46.24 16.2422 46.9587 14.6953V8.80078C46.6306 7.98828 46.158 7.37109 45.5408 6.94922C44.9236 6.51953 44.1814 6.30469 43.3142 6.30469C42.1345 6.30469 41.2166 6.76953 40.5603 7.69922C39.9041 8.62109 39.5759 9.98438 39.5759 11.7891ZM55.1633 18H53.757V5.32031H55.1633V18ZM53.5109 1.65234C53.5109 1.38672 53.5969 1.16406 53.7687 0.984375C53.9406 0.796875 54.175 0.703125 54.4719 0.703125C54.7687 0.703125 55.0031 0.796875 55.175 0.984375C55.3547 1.16406 55.4445 1.38672 55.4445 1.65234C55.4445 1.91797 55.3547 2.14062 55.175 2.32031C55.0031 2.5 54.7687 2.58984 54.4719 2.58984C54.175 2.58984 53.9406 2.5 53.7687 2.32031C53.5969 2.14062 53.5109 1.91797 53.5109 1.65234ZM61.8795 5.32031L61.9264 7.48828C62.403 6.70703 62.9967 6.11328 63.7077 5.70703C64.4186 5.29297 65.2038 5.08594 66.0631 5.08594C67.4225 5.08594 68.4342 5.46875 69.0983 6.23438C69.7623 7 70.0983 8.14844 70.1061 9.67969V18H68.7116V9.66797C68.7038 8.53516 68.4616 7.69141 67.985 7.13672C67.5163 6.58203 66.7623 6.30469 65.7233 6.30469C64.8561 6.30469 64.0866 6.57812 63.4147 7.125C62.7506 7.66406 62.2584 8.39453 61.9381 9.31641V18H60.5436V5.32031H61.8795ZM83.023 18V0.9375H88.062C89.8902 0.9375 91.2769 1.31641 92.2222 2.07422C93.1675 2.82422 93.6402 3.93359 93.6402 5.40234C93.6402 6.28516 93.398 7.05469 92.9136 7.71094C92.437 8.35938 91.7808 8.82422 90.9448 9.10547C91.937 9.32422 92.7339 9.8125 93.3355 10.5703C93.9448 11.3281 94.2495 12.2031 94.2495 13.1953C94.2495 14.7031 93.7612 15.8828 92.7847 16.7344C91.8159 17.5781 90.4644 18 88.73 18H83.023ZM84.4644 9.79688V16.7812H88.7886C90.023 16.7812 90.9995 16.4688 91.7183 15.8438C92.4448 15.2109 92.8081 14.3359 92.8081 13.2188C92.8081 12.1641 92.4605 11.332 91.7652 10.7227C91.0777 10.1055 90.1245 9.79688 88.9058 9.79688H84.4644ZM84.4644 8.58984H88.4019C89.605 8.56641 90.5347 8.28516 91.1909 7.74609C91.855 7.19922 92.187 6.40625 92.187 5.36719C92.187 4.27344 91.8433 3.46875 91.1558 2.95312C90.4761 2.42969 89.4448 2.16797 88.062 2.16797H84.4644V8.58984ZM106.977 18C106.837 17.6016 106.747 17.0117 106.708 16.2305C106.216 16.8711 105.587 17.3672 104.821 17.7188C104.063 18.0625 103.259 18.2344 102.407 18.2344C101.188 18.2344 100.2 17.8945 99.4423 17.2148C98.6923 16.5352 98.3173 15.6758 98.3173 14.6367C98.3173 13.4023 98.8291 12.4258 99.8525 11.707C100.884 10.9883 102.317 10.6289 104.153 10.6289H106.696V9.1875C106.696 8.28125 106.415 7.57031 105.852 7.05469C105.298 6.53125 104.485 6.26953 103.415 6.26953C102.438 6.26953 101.63 6.51953 100.989 7.01953C100.349 7.51953 100.028 8.12109 100.028 8.82422L98.622 8.8125C98.622 7.80469 99.0908 6.93359 100.028 6.19922C100.966 5.45703 102.118 5.08594 103.485 5.08594C104.899 5.08594 106.013 5.44141 106.825 6.15234C107.645 6.85547 108.067 7.83984 108.091 9.10547V15.1055C108.091 16.332 108.22 17.25 108.477 17.8594V18H106.977ZM102.571 16.9922C103.509 16.9922 104.345 16.7656 105.079 16.3125C105.821 15.8594 106.36 15.2539 106.696 14.4961V11.707H104.188C102.79 11.7227 101.696 11.9805 100.907 12.4805C100.118 12.9727 99.7236 13.6523 99.7236 14.5195C99.7236 15.2305 99.9853 15.8203 100.509 16.2891C101.04 16.7578 101.727 16.9922 102.571 16.9922ZM120.995 14.7773C120.995 14.082 120.713 13.5234 120.151 13.1016C119.596 12.6797 118.756 12.3516 117.631 12.1172C116.506 11.875 115.631 11.6016 115.006 11.2969C114.389 10.9844 113.928 10.6055 113.623 10.1602C113.327 9.71484 113.178 9.17578 113.178 8.54297C113.178 7.54297 113.596 6.71875 114.432 6.07031C115.268 5.41406 116.338 5.08594 117.643 5.08594C119.057 5.08594 120.19 5.4375 121.041 6.14062C121.901 6.83594 122.33 7.74609 122.33 8.87109H120.924C120.924 8.12891 120.612 7.51172 119.987 7.01953C119.37 6.52734 118.588 6.28125 117.643 6.28125C116.721 6.28125 115.979 6.48828 115.416 6.90234C114.862 7.30859 114.584 7.83984 114.584 8.49609C114.584 9.12891 114.815 9.62109 115.276 9.97266C115.745 10.3164 116.592 10.6328 117.819 10.9219C119.053 11.2109 119.975 11.5195 120.584 11.8477C121.202 12.1758 121.659 12.5703 121.955 13.0312C122.252 13.4922 122.401 14.0508 122.401 14.707C122.401 15.7773 121.967 16.6328 121.1 17.2734C120.241 17.9141 119.116 18.2344 117.725 18.2344C116.248 18.2344 115.049 17.8789 114.127 17.168C113.213 16.4492 112.756 15.543 112.756 14.4492H114.163C114.217 15.2695 114.561 15.9102 115.194 16.3711C115.834 16.8242 116.678 17.0508 117.725 17.0508C118.702 17.0508 119.491 16.8359 120.092 16.4062C120.694 15.9766 120.995 15.4336 120.995 14.7773ZM132.035 18.2344C130.957 18.2344 129.98 17.9688 129.105 17.4375C128.238 16.9062 127.562 16.168 127.078 15.2227C126.594 14.2695 126.351 13.2031 126.351 12.0234V11.5195C126.351 10.3008 126.586 9.20312 127.055 8.22656C127.531 7.25 128.191 6.48438 129.035 5.92969C129.879 5.36719 130.793 5.08594 131.777 5.08594C133.316 5.08594 134.535 5.61328 135.433 6.66797C136.34 7.71484 136.793 9.14844 136.793 10.9688V11.7539H127.746V12.0234C127.746 13.4609 128.156 14.6602 128.976 15.6211C129.805 16.5742 130.844 17.0508 132.094 17.0508C132.844 17.0508 133.504 16.9141 134.074 16.6406C134.652 16.3672 135.176 15.9297 135.644 15.3281L136.523 15.9961C135.492 17.4883 133.996 18.2344 132.035 18.2344ZM131.777 6.28125C130.723 6.28125 129.832 6.66797 129.105 7.44141C128.387 8.21484 127.949 9.25391 127.793 10.5586H135.398V10.4062C135.359 9.1875 135.012 8.19531 134.355 7.42969C133.699 6.66406 132.84 6.28125 131.777 6.28125ZM140.521 11.543C140.521 9.57422 140.958 8.00781 141.833 6.84375C142.716 5.67188 143.911 5.08594 145.419 5.08594C147.13 5.08594 148.435 5.76172 149.333 7.11328V0H150.728V18H149.415L149.357 16.3125C148.458 17.5938 147.138 18.2344 145.396 18.2344C143.935 18.2344 142.755 17.6484 141.857 16.4766C140.966 15.2969 140.521 13.707 140.521 11.707V11.543ZM141.939 11.7891C141.939 13.4062 142.263 14.6836 142.911 15.6211C143.56 16.5508 144.474 17.0156 145.654 17.0156C147.38 17.0156 148.607 16.2539 149.333 14.7305V8.77734C148.607 7.12891 147.388 6.30469 145.677 6.30469C144.497 6.30469 143.579 6.76953 142.923 7.69922C142.267 8.62109 141.939 9.98438 141.939 11.7891ZM163.703 18V0.9375H168.473C169.871 0.9375 171.125 1.25781 172.235 1.89844C173.344 2.53125 174.207 3.44141 174.824 4.62891C175.449 5.81641 175.762 7.16797 175.762 8.68359V10.2539C175.762 11.7773 175.453 13.1289 174.836 14.3086C174.219 15.4883 173.348 16.3984 172.223 17.0391C171.106 17.6797 169.82 18 168.367 18H163.703ZM165.145 2.16797V16.7812H168.379C170.176 16.7812 171.617 16.1875 172.703 15C173.789 13.8047 174.332 12.1914 174.332 10.1602V8.66016C174.332 6.69922 173.797 5.12891 172.727 3.94922C171.656 2.76953 170.246 2.17578 168.496 2.16797H165.145ZM182.232 18H180.826V5.32031H182.232V18ZM180.58 1.65234C180.58 1.38672 180.666 1.16406 180.837 0.984375C181.009 0.796875 181.244 0.703125 181.541 0.703125C181.837 0.703125 182.072 0.796875 182.244 0.984375C182.423 1.16406 182.513 1.38672 182.513 1.65234C182.513 1.91797 182.423 2.14062 182.244 2.32031C182.072 2.5 181.837 2.58984 181.541 2.58984C181.244 2.58984 181.009 2.5 180.837 2.32031C180.666 2.14062 180.58 1.91797 180.58 1.65234ZM195.206 14.7773C195.206 14.082 194.925 13.5234 194.362 13.1016C193.808 12.6797 192.968 12.3516 191.843 12.1172C190.718 11.875 189.843 11.6016 189.218 11.2969C188.601 10.9844 188.14 10.6055 187.835 10.1602C187.538 9.71484 187.39 9.17578 187.39 8.54297C187.39 7.54297 187.808 6.71875 188.644 6.07031C189.48 5.41406 190.55 5.08594 191.855 5.08594C193.269 5.08594 194.401 5.4375 195.253 6.14062C196.112 6.83594 196.542 7.74609 196.542 8.87109H195.136C195.136 8.12891 194.823 7.51172 194.198 7.01953C193.581 6.52734 192.8 6.28125 191.855 6.28125C190.933 6.28125 190.19 6.48828 189.628 6.90234C189.073 7.30859 188.796 7.83984 188.796 8.49609C188.796 9.12891 189.026 9.62109 189.487 9.97266C189.956 10.3164 190.804 10.6328 192.03 10.9219C193.265 11.2109 194.187 11.5195 194.796 11.8477C195.413 12.1758 195.87 12.5703 196.167 13.0312C196.464 13.4922 196.612 14.0508 196.612 14.707C196.612 15.7773 196.179 16.6328 195.312 17.2734C194.452 17.9141 193.327 18.2344 191.937 18.2344C190.46 18.2344 189.261 17.8789 188.339 17.168C187.425 16.4492 186.968 15.543 186.968 14.4492H188.374C188.429 15.2695 188.772 15.9102 189.405 16.3711C190.046 16.8242 190.89 17.0508 191.937 17.0508C192.913 17.0508 193.702 16.8359 194.304 16.4062C194.905 15.9766 195.206 15.4336 195.206 14.7773ZM206.024 17.0508C207 17.0508 207.817 16.7773 208.473 16.2305C209.137 15.6758 209.497 14.9609 209.551 14.0859H210.899C210.86 14.8594 210.618 15.5664 210.172 16.207C209.727 16.8398 209.133 17.3359 208.391 17.6953C207.657 18.0547 206.868 18.2344 206.024 18.2344C204.36 18.2344 203.04 17.6562 202.063 16.5C201.094 15.3438 200.61 13.7891 200.61 11.8359V11.4141C200.61 10.1641 200.829 9.05859 201.266 8.09766C201.704 7.13672 202.329 6.39453 203.141 5.87109C203.961 5.34766 204.918 5.08594 206.012 5.08594C207.403 5.08594 208.547 5.5 209.446 6.32812C210.352 7.15625 210.836 8.24609 210.899 9.59766H209.551C209.489 8.60547 209.129 7.80469 208.473 7.19531C207.825 6.58594 207.004 6.28125 206.012 6.28125C204.747 6.28125 203.762 6.73828 203.059 7.65234C202.364 8.56641 202.016 9.84766 202.016 11.4961V11.9062C202.016 13.5234 202.364 14.7852 203.059 15.6914C203.762 16.5977 204.75 17.0508 206.024 17.0508ZM214.498 11.4727C214.498 10.2539 214.732 9.15625 215.201 8.17969C215.678 7.20312 216.346 6.44531 217.205 5.90625C218.072 5.35938 219.053 5.08594 220.146 5.08594C221.834 5.08594 223.201 5.67969 224.248 6.86719C225.295 8.04688 225.818 9.61328 225.818 11.5664V11.8594C225.818 13.0859 225.58 14.1914 225.103 15.1758C224.635 16.1523 223.971 16.9062 223.111 17.4375C222.252 17.9688 221.271 18.2344 220.17 18.2344C218.49 18.2344 217.123 17.6445 216.068 16.4648C215.021 15.2773 214.498 13.707 214.498 11.7539V11.4727ZM215.904 11.8594C215.904 13.375 216.295 14.6211 217.076 15.5977C217.865 16.5664 218.896 17.0508 220.17 17.0508C221.435 17.0508 222.459 16.5664 223.24 15.5977C224.029 14.6211 224.424 13.3359 224.424 11.7422V11.4727C224.424 10.5039 224.244 9.61719 223.885 8.8125C223.525 8.00781 223.021 7.38672 222.373 6.94922C221.725 6.50391 220.982 6.28125 220.146 6.28125C218.896 6.28125 217.877 6.77344 217.088 7.75781C216.299 8.73438 215.904 10.0156 215.904 11.6016V11.8594ZM236.144 6.51562C235.847 6.46094 235.531 6.43359 235.195 6.43359C234.32 6.43359 233.577 6.67969 232.968 7.17188C232.367 7.65625 231.937 8.36328 231.679 9.29297V18H230.285V5.32031H231.656L231.679 7.33594C232.421 5.83594 233.613 5.08594 235.253 5.08594C235.644 5.08594 235.952 5.13672 236.179 5.23828L236.144 6.51562ZM239.134 11.543C239.134 9.57422 239.571 8.00781 240.446 6.84375C241.329 5.67188 242.524 5.08594 244.032 5.08594C245.743 5.08594 247.048 5.76172 247.946 7.11328V0H249.341V18H248.028L247.97 16.3125C247.071 17.5938 245.751 18.2344 244.009 18.2344C242.548 18.2344 241.368 17.6484 240.47 16.4766C239.579 15.2969 239.134 13.707 239.134 11.707V11.543ZM240.552 11.7891C240.552 13.4062 240.876 14.6836 241.524 15.6211C242.173 16.5508 243.087 17.0156 244.266 17.0156C245.993 17.0156 247.22 16.2539 247.946 14.7305V8.77734C247.22 7.12891 246.001 6.30469 244.29 6.30469C243.11 6.30469 242.192 6.76953 241.536 7.69922C240.88 8.62109 240.552 9.98438 240.552 11.7891ZM262.316 18V0.9375H267.355C269.183 0.9375 270.57 1.31641 271.515 2.07422C272.461 2.82422 272.933 3.93359 272.933 5.40234C272.933 6.28516 272.691 7.05469 272.207 7.71094C271.73 8.35938 271.074 8.82422 270.238 9.10547C271.23 9.32422 272.027 9.8125 272.629 10.5703C273.238 11.3281 273.543 12.2031 273.543 13.1953C273.543 14.7031 273.054 15.8828 272.078 16.7344C271.109 17.5781 269.758 18 268.023 18H262.316ZM263.758 9.79688V16.7812H268.082C269.316 16.7812 270.293 16.4688 271.011 15.8438C271.738 15.2109 272.101 14.3359 272.101 13.2188C272.101 12.1641 271.754 11.332 271.058 10.7227C270.371 10.1055 269.418 9.79688 268.199 9.79688H263.758ZM263.758 8.58984H267.695C268.898 8.56641 269.828 8.28516 270.484 7.74609C271.148 7.19922 271.48 6.40625 271.48 5.36719C271.48 4.27344 271.136 3.46875 270.449 2.95312C269.769 2.42969 268.738 2.16797 267.355 2.16797H263.758V8.58984ZM277.493 11.4727C277.493 10.2539 277.728 9.15625 278.196 8.17969C278.673 7.20312 279.341 6.44531 280.2 5.90625C281.068 5.35938 282.048 5.08594 283.142 5.08594C284.829 5.08594 286.196 5.67969 287.243 6.86719C288.29 8.04688 288.814 9.61328 288.814 11.5664V11.8594C288.814 13.0859 288.575 14.1914 288.099 15.1758C287.63 16.1523 286.966 16.9062 286.107 17.4375C285.247 17.9688 284.267 18.2344 283.165 18.2344C281.485 18.2344 280.118 17.6445 279.064 16.4648C278.017 15.2773 277.493 13.707 277.493 11.7539V11.4727ZM278.9 11.8594C278.9 13.375 279.29 14.6211 280.071 15.5977C280.86 16.5664 281.892 17.0508 283.165 17.0508C284.431 17.0508 285.454 16.5664 286.235 15.5977C287.025 14.6211 287.419 13.3359 287.419 11.7422V11.4727C287.419 10.5039 287.239 9.61719 286.88 8.8125C286.521 8.00781 286.017 7.38672 285.368 6.94922C284.72 6.50391 283.978 6.28125 283.142 6.28125C281.892 6.28125 280.872 6.77344 280.083 7.75781C279.294 8.73438 278.9 10.0156 278.9 11.6016V11.8594ZM295.46 2.07422V5.32031H298.085V6.46875H295.46V14.918C295.46 15.6211 295.585 16.1445 295.835 16.4883C296.092 16.832 296.518 17.0039 297.112 17.0039C297.346 17.0039 297.725 16.9648 298.249 16.8867L298.307 18.0352C297.94 18.168 297.44 18.2344 296.807 18.2344C295.846 18.2344 295.147 17.957 294.71 17.4023C294.272 16.8398 294.053 16.0156 294.053 14.9297V6.46875H291.721V5.32031H294.053V2.07422H295.46Z" fill="#7E7E7E"/>
</svg>
