<svg width="351" height="20" viewBox="0 0 351 20" fill="none" xmlns="http://www.w3.org/2000/svg">
<path d="M10.8658 14.8047C10.8658 13.8594 10.5338 13.1133 9.86969 12.5664C9.20563 12.0117 7.99078 11.4883 6.22516 10.9961C4.45953 10.4961 3.17047 9.95312 2.35797 9.36719C1.20172 8.53906 0.623596 7.45312 0.623596 6.10938C0.623596 4.80469 1.15875 3.74609 2.22906 2.93359C3.30719 2.11328 4.68219 1.70312 6.35406 1.70312C7.48688 1.70312 8.4986 1.92188 9.38922 2.35938C10.2877 2.79688 10.983 3.40625 11.4752 4.1875C11.9673 4.96875 12.2134 5.83984 12.2134 6.80078H10.7603C10.7603 5.63672 10.3619 4.70312 9.565 4C8.76813 3.28906 7.69781 2.93359 6.35406 2.93359C5.04938 2.93359 4.01031 3.22656 3.23688 3.8125C2.46344 4.39062 2.07672 5.14844 2.07672 6.08594C2.07672 6.95312 2.42438 7.66016 3.11969 8.20703C3.815 8.75391 4.92828 9.23828 6.45953 9.66016C7.99078 10.0742 9.15094 10.5078 9.94 10.9609C10.7291 11.4062 11.3228 11.9414 11.7213 12.5664C12.1197 13.1914 12.3189 13.9297 12.3189 14.7812C12.3189 16.125 11.7798 17.2031 10.7017 18.0156C9.63141 18.8281 8.21735 19.2344 6.45953 19.2344C5.25641 19.2344 4.15094 19.0195 3.14313 18.5898C2.14313 18.1602 1.38141 17.5586 0.857971 16.7852C0.342346 16.0117 0.0845337 15.125 0.0845337 14.125H1.52594C1.52594 15.3281 1.97516 16.2773 2.8736 16.9727C3.77203 17.668 4.96735 18.0156 6.45953 18.0156C7.78766 18.0156 8.85406 17.7227 9.65875 17.1367C10.4634 16.5508 10.8658 15.7734 10.8658 14.8047ZM21.5781 19.2344C20.5 19.2344 19.5234 18.9688 18.6484 18.4375C17.7813 17.9062 17.1055 17.168 16.6211 16.2227C16.1367 15.2695 15.8945 14.2031 15.8945 13.0234V12.5195C15.8945 11.3008 16.1289 10.2031 16.5977 9.22656C17.0742 8.25 17.7344 7.48438 18.5781 6.92969C19.4219 6.36719 20.3359 6.08594 21.3203 6.08594C22.8594 6.08594 24.0781 6.61328 24.9766 7.66797C25.8828 8.71484 26.3359 10.1484 26.3359 11.9688V12.7539H17.2891V13.0234C17.2891 14.4609 17.6992 15.6602 18.5195 16.6211C19.3477 17.5742 20.3867 18.0508 21.6367 18.0508C22.3867 18.0508 23.0469 17.9141 23.6172 17.6406C24.1953 17.3672 24.7188 16.9297 25.1875 16.3281L26.0664 16.9961C25.0352 18.4883 23.5391 19.2344 21.5781 19.2344ZM21.3203 7.28125C20.2656 7.28125 19.375 7.66797 18.6484 8.44141C17.9297 9.21484 17.4922 10.2539 17.3359 11.5586H24.9414V11.4062C24.9023 10.1875 24.5547 9.19531 23.8984 8.42969C23.2422 7.66406 22.3828 7.28125 21.3203 7.28125ZM32.1967 19H30.7905V1H32.1967V19ZM38.5848 19V7.46875H36.4872V6.32031H38.5848V4.78516C38.5848 3.48828 38.913 2.49219 39.5692 1.79688C40.2333 1.10156 41.1552 0.753906 42.3348 0.753906C42.8661 0.753906 43.3622 0.820312 43.8231 0.953125L43.7177 2.125C43.327 2.03125 42.9013 1.98438 42.4403 1.98438C41.6669 1.98438 41.0653 2.22656 40.6356 2.71094C40.2059 3.1875 39.9911 3.86719 39.9911 4.75V6.32031H43.0145V7.46875H39.9911V19H38.5848ZM48.4769 8.46484C48.9378 7.70703 49.5277 7.12109 50.2464 6.70703C50.9652 6.29297 51.7503 6.08594 52.6019 6.08594C53.9613 6.08594 54.973 6.46875 55.637 7.23438C56.3011 8 56.637 9.14844 56.6448 10.6797V19H55.2503V10.668C55.2425 9.53516 55.0003 8.69141 54.5238 8.13672C54.055 7.58203 53.3011 7.30469 52.262 7.30469C51.3948 7.30469 50.6253 7.57812 49.9534 8.125C49.2894 8.66406 48.7972 9.39453 48.4769 10.3164V19H47.0823V1H48.4769V8.46484ZM61.0408 12.4727C61.0408 11.2539 61.2752 10.1562 61.7439 9.17969C62.2205 8.20312 62.8884 7.44531 63.7478 6.90625C64.615 6.35938 65.5955 6.08594 66.6892 6.08594C68.3767 6.08594 69.7439 6.67969 70.7908 7.86719C71.8377 9.04688 72.3611 10.6133 72.3611 12.5664V12.8594C72.3611 14.0859 72.1228 15.1914 71.6463 16.1758C71.1775 17.1523 70.5134 17.9062 69.6541 18.4375C68.7947 18.9688 67.8142 19.2344 66.7127 19.2344C65.033 19.2344 63.6658 18.6445 62.6111 17.4648C61.5642 16.2773 61.0408 14.707 61.0408 12.7539V12.4727ZM62.447 12.8594C62.447 14.375 62.8377 15.6211 63.6189 16.5977C64.408 17.5664 65.4392 18.0508 66.7127 18.0508C67.9783 18.0508 69.0017 17.5664 69.783 16.5977C70.572 15.6211 70.9666 14.3359 70.9666 12.7422V12.4727C70.9666 11.5039 70.7869 10.6172 70.4275 9.8125C70.0681 9.00781 69.5642 8.38672 68.9158 7.94922C68.2673 7.50391 67.5252 7.28125 66.6892 7.28125C65.4392 7.28125 64.4197 7.77344 63.6306 8.75781C62.8416 9.73438 62.447 11.0156 62.447 12.6016V12.8594ZM84.4211 15.7773C84.4211 15.082 84.1398 14.5234 83.5773 14.1016C83.0227 13.6797 82.1828 13.3516 81.0578 13.1172C79.9328 12.875 79.0578 12.6016 78.4328 12.2969C77.8156 11.9844 77.3547 11.6055 77.05 11.1602C76.7531 10.7148 76.6047 10.1758 76.6047 9.54297C76.6047 8.54297 77.0227 7.71875 77.8586 7.07031C78.6945 6.41406 79.7648 6.08594 81.0695 6.08594C82.4836 6.08594 83.6164 6.4375 84.468 7.14062C85.3273 7.83594 85.757 8.74609 85.757 9.87109H84.3508C84.3508 9.12891 84.0383 8.51172 83.4133 8.01953C82.7961 7.52734 82.0148 7.28125 81.0695 7.28125C80.1477 7.28125 79.4055 7.48828 78.843 7.90234C78.2883 8.30859 78.0109 8.83984 78.0109 9.49609C78.0109 10.1289 78.2414 10.6211 78.7023 10.9727C79.1711 11.3164 80.0188 11.6328 81.2453 11.9219C82.4797 12.2109 83.4016 12.5195 84.0109 12.8477C84.6281 13.1758 85.0852 13.5703 85.382 14.0312C85.6789 14.4922 85.8273 15.0508 85.8273 15.707C85.8273 16.7773 85.3938 17.6328 84.5266 18.2734C83.6672 18.9141 82.5422 19.2344 81.1516 19.2344C79.675 19.2344 78.4758 18.8789 77.5539 18.168C76.6398 17.4492 76.1828 16.543 76.1828 15.4492H77.5891C77.6438 16.2695 77.9875 16.9102 78.6203 17.3711C79.2609 17.8242 80.1047 18.0508 81.1516 18.0508C82.1281 18.0508 82.9172 17.8359 83.5188 17.4062C84.1203 16.9766 84.4211 16.4336 84.4211 15.7773ZM92.7311 3.07422V6.32031H95.3561V7.46875H92.7311V15.918C92.7311 16.6211 92.8561 17.1445 93.1061 17.4883C93.3639 17.832 93.7897 18.0039 94.3834 18.0039C94.6178 18.0039 94.9967 17.9648 95.5202 17.8867L95.5788 19.0352C95.2116 19.168 94.7116 19.2344 94.0788 19.2344C93.1178 19.2344 92.4186 18.957 91.9811 18.4023C91.5436 17.8398 91.3248 17.0156 91.3248 15.9297V7.46875H88.9928V6.32031H91.3248V3.07422H92.7311ZM104.732 19.2344C103.654 19.2344 102.678 18.9688 101.803 18.4375C100.936 17.9062 100.26 17.168 99.7755 16.2227C99.2911 15.2695 99.0489 14.2031 99.0489 13.0234V12.5195C99.0489 11.3008 99.2833 10.2031 99.752 9.22656C100.229 8.25 100.889 7.48438 101.732 6.92969C102.576 6.36719 103.49 6.08594 104.475 6.08594C106.014 6.08594 107.232 6.61328 108.131 7.66797C109.037 8.71484 109.49 10.1484 109.49 11.9688V12.7539H100.443V13.0234C100.443 14.4609 100.854 15.6602 101.674 16.6211C102.502 17.5742 103.541 18.0508 104.791 18.0508C105.541 18.0508 106.201 17.9141 106.772 17.6406C107.35 17.3672 107.873 16.9297 108.342 16.3281L109.221 16.9961C108.19 18.4883 106.693 19.2344 104.732 19.2344ZM104.475 7.28125C103.42 7.28125 102.529 7.66797 101.803 8.44141C101.084 9.21484 100.647 10.2539 100.49 11.5586H108.096V11.4062C108.057 10.1875 107.709 9.19531 107.053 8.42969C106.397 7.66406 105.537 7.28125 104.475 7.28125ZM113.218 12.543C113.218 10.5742 113.656 9.00781 114.531 7.84375C115.414 6.67188 116.609 6.08594 118.117 6.08594C119.828 6.08594 121.132 6.76172 122.031 8.11328V1H123.425V19H122.113L122.054 17.3125C121.156 18.5938 119.835 19.2344 118.093 19.2344C116.632 19.2344 115.453 18.6484 114.554 17.4766C113.664 16.2969 113.218 14.707 113.218 12.707V12.543ZM114.636 12.7891C114.636 14.4062 114.96 15.6836 115.609 16.6211C116.257 17.5508 117.171 18.0156 118.351 18.0156C120.078 18.0156 121.304 17.2539 122.031 15.7305V9.77734C121.304 8.12891 120.085 7.30469 118.375 7.30469C117.195 7.30469 116.277 7.76953 115.621 8.69922C114.964 9.62109 114.636 10.9844 114.636 12.7891ZM136.401 19V1.9375H141.17C142.569 1.9375 143.823 2.25781 144.932 2.89844C146.041 3.53125 146.905 4.44141 147.522 5.62891C148.147 6.81641 148.459 8.16797 148.459 9.68359V11.2539C148.459 12.7773 148.151 14.1289 147.534 15.3086C146.916 16.4883 146.045 17.3984 144.92 18.0391C143.803 18.6797 142.518 19 141.065 19H136.401ZM137.842 3.16797V17.7812H141.077C142.873 17.7812 144.315 17.1875 145.401 16C146.487 14.8047 147.03 13.1914 147.03 11.1602V9.66016C147.03 7.69922 146.495 6.12891 145.424 4.94922C144.354 3.76953 142.944 3.17578 141.194 3.16797H137.842ZM154.93 19H153.523V6.32031H154.93V19ZM153.277 2.65234C153.277 2.38672 153.363 2.16406 153.535 1.98438C153.707 1.79688 153.941 1.70312 154.238 1.70312C154.535 1.70312 154.769 1.79688 154.941 1.98438C155.121 2.16406 155.211 2.38672 155.211 2.65234C155.211 2.91797 155.121 3.14062 154.941 3.32031C154.769 3.5 154.535 3.58984 154.238 3.58984C153.941 3.58984 153.707 3.5 153.535 3.32031C153.363 3.14062 153.277 2.91797 153.277 2.65234ZM167.904 15.7773C167.904 15.082 167.622 14.5234 167.06 14.1016C166.505 13.6797 165.665 13.3516 164.54 13.1172C163.415 12.875 162.54 12.6016 161.915 12.2969C161.298 11.9844 160.837 11.6055 160.533 11.1602C160.236 10.7148 160.087 10.1758 160.087 9.54297C160.087 8.54297 160.505 7.71875 161.341 7.07031C162.177 6.41406 163.247 6.08594 164.552 6.08594C165.966 6.08594 167.099 6.4375 167.95 7.14062C168.81 7.83594 169.24 8.74609 169.24 9.87109H167.833C167.833 9.12891 167.521 8.51172 166.896 8.01953C166.279 7.52734 165.497 7.28125 164.552 7.28125C163.63 7.28125 162.888 7.48828 162.325 7.90234C161.771 8.30859 161.493 8.83984 161.493 9.49609C161.493 10.1289 161.724 10.6211 162.185 10.9727C162.654 11.3164 163.501 11.6328 164.728 11.9219C165.962 12.2109 166.884 12.5195 167.493 12.8477C168.111 13.1758 168.568 13.5703 168.865 14.0312C169.161 14.4922 169.31 15.0508 169.31 15.707C169.31 16.7773 168.876 17.6328 168.009 18.2734C167.15 18.9141 166.025 19.2344 164.634 19.2344C163.158 19.2344 161.958 18.8789 161.036 18.168C160.122 17.4492 159.665 16.543 159.665 15.4492H161.072C161.126 16.2695 161.47 16.9102 162.103 17.3711C162.743 17.8242 163.587 18.0508 164.634 18.0508C165.611 18.0508 166.4 17.8359 167.001 17.4062C167.603 16.9766 167.904 16.4336 167.904 15.7773ZM178.721 18.0508C179.698 18.0508 180.514 17.7773 181.171 17.2305C181.835 16.6758 182.194 15.9609 182.249 15.0859H183.596C183.557 15.8594 183.315 16.5664 182.87 17.207C182.425 17.8398 181.831 18.3359 181.089 18.6953C180.354 19.0547 179.565 19.2344 178.721 19.2344C177.057 19.2344 175.737 18.6562 174.76 17.5C173.792 16.3438 173.307 14.7891 173.307 12.8359V12.4141C173.307 11.1641 173.526 10.0586 173.964 9.09766C174.401 8.13672 175.026 7.39453 175.839 6.87109C176.659 6.34766 177.616 6.08594 178.71 6.08594C180.1 6.08594 181.245 6.5 182.143 7.32812C183.05 8.15625 183.534 9.24609 183.596 10.5977H182.249C182.186 9.60547 181.827 8.80469 181.171 8.19531C180.522 7.58594 179.702 7.28125 178.71 7.28125C177.444 7.28125 176.46 7.73828 175.757 8.65234C175.061 9.56641 174.714 10.8477 174.714 12.4961V12.9062C174.714 14.5234 175.061 15.7852 175.757 16.6914C176.46 17.5977 177.448 18.0508 178.721 18.0508ZM187.195 12.4727C187.195 11.2539 187.43 10.1562 187.899 9.17969C188.375 8.20312 189.043 7.44531 189.902 6.90625C190.77 6.35938 191.75 6.08594 192.844 6.08594C194.531 6.08594 195.899 6.67969 196.945 7.86719C197.992 9.04688 198.516 10.6133 198.516 12.5664V12.8594C198.516 14.0859 198.277 15.1914 197.801 16.1758C197.332 17.1523 196.668 17.9062 195.809 18.4375C194.949 18.9688 193.969 19.2344 192.867 19.2344C191.188 19.2344 189.82 18.6445 188.766 17.4648C187.719 16.2773 187.195 14.707 187.195 12.7539V12.4727ZM188.602 12.8594C188.602 14.375 188.992 15.6211 189.774 16.5977C190.563 17.5664 191.594 18.0508 192.867 18.0508C194.133 18.0508 195.156 17.5664 195.938 16.5977C196.727 15.6211 197.121 14.3359 197.121 12.7422V12.4727C197.121 11.5039 196.942 10.6172 196.582 9.8125C196.223 9.00781 195.719 8.38672 195.07 7.94922C194.422 7.50391 193.68 7.28125 192.844 7.28125C191.594 7.28125 190.574 7.77344 189.785 8.75781C188.996 9.73438 188.602 11.0156 188.602 12.6016V12.8594ZM208.841 7.51562C208.545 7.46094 208.228 7.43359 207.892 7.43359C207.017 7.43359 206.275 7.67969 205.666 8.17188C205.064 8.65625 204.634 9.36328 204.377 10.293V19H202.982V6.32031H204.353L204.377 8.33594C205.119 6.83594 206.31 6.08594 207.951 6.08594C208.341 6.08594 208.65 6.13672 208.877 6.23828L208.841 7.51562ZM211.831 12.543C211.831 10.5742 212.269 9.00781 213.144 7.84375C214.026 6.67188 215.222 6.08594 216.73 6.08594C218.44 6.08594 219.745 6.76172 220.644 8.11328V1H222.038V19H220.726L220.667 17.3125C219.769 18.5938 218.448 19.2344 216.706 19.2344C215.245 19.2344 214.065 18.6484 213.167 17.4766C212.276 16.2969 211.831 14.707 211.831 12.707V12.543ZM213.249 12.7891C213.249 14.4062 213.573 15.6836 214.222 16.6211C214.87 17.5508 215.784 18.0156 216.964 18.0156C218.69 18.0156 219.917 17.2539 220.644 15.7305V9.77734C219.917 8.12891 218.698 7.30469 216.987 7.30469C215.808 7.30469 214.89 7.76953 214.233 8.69922C213.577 9.62109 213.249 10.9844 213.249 12.7891ZM236.924 1.9375L243.217 16.9961L249.533 1.9375H251.455V19H250.014V11.5703L250.131 3.95312L243.779 19H242.666L236.338 4.01172L236.455 11.5234V19H235.014V1.9375H236.924ZM265.167 17.3945C264.324 18.6211 262.976 19.2344 261.124 19.2344C259.773 19.2344 258.745 18.8438 258.042 18.0625C257.339 17.2734 256.98 16.1094 256.964 14.5703V6.32031H258.359V14.3945C258.359 16.8086 259.335 18.0156 261.288 18.0156C263.32 18.0156 264.605 17.1758 265.144 15.4961V6.32031H266.55V19H265.191L265.167 17.3945ZM279.36 15.7773C279.36 15.082 279.079 14.5234 278.516 14.1016C277.962 13.6797 277.122 13.3516 275.997 13.1172C274.872 12.875 273.997 12.6016 273.372 12.2969C272.755 11.9844 272.294 11.6055 271.989 11.1602C271.692 10.7148 271.544 10.1758 271.544 9.54297C271.544 8.54297 271.962 7.71875 272.798 7.07031C273.634 6.41406 274.704 6.08594 276.009 6.08594C277.423 6.08594 278.555 6.4375 279.407 7.14062C280.266 7.83594 280.696 8.74609 280.696 9.87109H279.29C279.29 9.12891 278.977 8.51172 278.352 8.01953C277.735 7.52734 276.954 7.28125 276.009 7.28125C275.087 7.28125 274.345 7.48828 273.782 7.90234C273.227 8.30859 272.95 8.83984 272.95 9.49609C272.95 10.1289 273.18 10.6211 273.641 10.9727C274.11 11.3164 274.958 11.6328 276.184 11.9219C277.419 12.2109 278.341 12.5195 278.95 12.8477C279.567 13.1758 280.024 13.5703 280.321 14.0312C280.618 14.4922 280.766 15.0508 280.766 15.707C280.766 16.7773 280.333 17.6328 279.466 18.2734C278.606 18.9141 277.481 19.2344 276.091 19.2344C274.614 19.2344 273.415 18.8789 272.493 18.168C271.579 17.4492 271.122 16.543 271.122 15.4492H272.528C272.583 16.2695 272.927 16.9102 273.559 17.3711C274.2 17.8242 275.044 18.0508 276.091 18.0508C277.067 18.0508 277.856 17.8359 278.458 17.4062C279.059 16.9766 279.36 16.4336 279.36 15.7773ZM287.061 19H285.655V6.32031H287.061V19ZM285.408 2.65234C285.408 2.38672 285.494 2.16406 285.666 1.98438C285.838 1.79688 286.073 1.70312 286.369 1.70312C286.666 1.70312 286.901 1.79688 287.073 1.98438C287.252 2.16406 287.342 2.38672 287.342 2.65234C287.342 2.91797 287.252 3.14062 287.073 3.32031C286.901 3.5 286.666 3.58984 286.369 3.58984C286.073 3.58984 285.838 3.5 285.666 3.32031C285.494 3.14062 285.408 2.91797 285.408 2.65234ZM297.129 18.0508C298.105 18.0508 298.922 17.7773 299.578 17.2305C300.242 16.6758 300.601 15.9609 300.656 15.0859H302.004C301.965 15.8594 301.722 16.5664 301.277 17.207C300.832 17.8398 300.238 18.3359 299.496 18.6953C298.761 19.0547 297.972 19.2344 297.129 19.2344C295.465 19.2344 294.144 18.6562 293.168 17.5C292.199 16.3438 291.715 14.7891 291.715 12.8359V12.4141C291.715 11.1641 291.933 10.0586 292.371 9.09766C292.808 8.13672 293.433 7.39453 294.246 6.87109C295.066 6.34766 296.023 6.08594 297.117 6.08594C298.508 6.08594 299.652 6.5 300.55 7.32812C301.457 8.15625 301.941 9.24609 302.004 10.5977H300.656C300.593 9.60547 300.234 8.80469 299.578 8.19531C298.929 7.58594 298.109 7.28125 297.117 7.28125C295.851 7.28125 294.867 7.73828 294.164 8.65234C293.468 9.56641 293.121 10.8477 293.121 12.4961V12.9062C293.121 14.5234 293.468 15.7852 294.164 16.6914C294.867 17.5977 295.855 18.0508 297.129 18.0508ZM314.1 19V1.9375H319.139C320.967 1.9375 322.354 2.31641 323.299 3.07422C324.245 3.82422 324.717 4.93359 324.717 6.40234C324.717 7.28516 324.475 8.05469 323.991 8.71094C323.514 9.35938 322.858 9.82422 322.022 10.1055C323.014 10.3242 323.811 10.8125 324.413 11.5703C325.022 12.3281 325.327 13.2031 325.327 14.1953C325.327 15.7031 324.838 16.8828 323.862 17.7344C322.893 18.5781 321.542 19 319.807 19H314.1ZM315.542 10.7969V17.7812H319.866C321.1 17.7812 322.077 17.4688 322.795 16.8438C323.522 16.2109 323.885 15.3359 323.885 14.2188C323.885 13.1641 323.538 12.332 322.842 11.7227C322.155 11.1055 321.202 10.7969 319.983 10.7969H315.542ZM315.542 9.58984H319.479C320.682 9.56641 321.612 9.28516 322.268 8.74609C322.932 8.19922 323.264 7.40625 323.264 6.36719C323.264 5.27344 322.92 4.46875 322.233 3.95312C321.553 3.42969 320.522 3.16797 319.139 3.16797H315.542V9.58984ZM329.277 12.4727C329.277 11.2539 329.512 10.1562 329.98 9.17969C330.457 8.20312 331.125 7.44531 331.984 6.90625C332.852 6.35938 333.832 6.08594 334.926 6.08594C336.613 6.08594 337.98 6.67969 339.027 7.86719C340.074 9.04688 340.598 10.6133 340.598 12.5664V12.8594C340.598 14.0859 340.359 15.1914 339.883 16.1758C339.414 17.1523 338.75 17.9062 337.891 18.4375C337.031 18.9688 336.051 19.2344 334.949 19.2344C333.27 19.2344 331.902 18.6445 330.848 17.4648C329.801 16.2773 329.277 14.707 329.277 12.7539V12.4727ZM330.684 12.8594C330.684 14.375 331.074 15.6211 331.855 16.5977C332.645 17.5664 333.676 18.0508 334.949 18.0508C336.215 18.0508 337.238 17.5664 338.02 16.5977C338.809 15.6211 339.203 14.3359 339.203 12.7422V12.4727C339.203 11.5039 339.023 10.6172 338.664 9.8125C338.305 9.00781 337.801 8.38672 337.152 7.94922C336.504 7.50391 335.762 7.28125 334.926 7.28125C333.676 7.28125 332.656 7.77344 331.867 8.75781C331.078 9.73438 330.684 11.0156 330.684 12.6016V12.8594ZM347.244 3.07422V6.32031H349.869V7.46875H347.244V15.918C347.244 16.6211 347.369 17.1445 347.619 17.4883C347.876 17.832 348.302 18.0039 348.896 18.0039C349.13 18.0039 349.509 17.9648 350.033 17.8867L350.091 19.0352C349.724 19.168 349.224 19.2344 348.591 19.2344C347.63 19.2344 346.931 18.957 346.494 18.4023C346.056 17.8398 345.837 17.0156 345.837 15.9297V7.46875H343.505V6.32031H345.837V3.07422H347.244Z" fill="#7E7E7E"/>
</svg>
