<svg width="1088" height="688" viewBox="0 0 1088 688" fill="none" xmlns="http://www.w3.org/2000/svg">
<path d="M961.81 454.442C956.54 499.592 945.59 535.842 930.56 564.752C910.56 603.272 876.35 618.792 845.79 635.032C836.959 639.716 827.778 643.708 818.33 646.972C762.72 666.272 700.48 661.152 651.59 650.962C617.3 643.809 582.492 639.408 547.5 637.802C537.52 637.352 527.53 637.129 517.53 637.132C502.11 637.152 224.46 642.422 156.86 505.562C140.17 471.802 128.73 430.562 124.62 380.292C112.99 238.172 176.91 144.832 259.36 83.822C415.33 -31.588 629.12 -26.748 782.79 91.702C885.15 170.602 980.99 290.012 961.81 454.442Z" fill="#3F3D56"/>
<path d="M930.56 564.752C910.56 603.272 883.35 628.792 852.79 645.032C843.959 649.716 834.778 653.708 825.33 656.972C769.72 676.272 707.48 671.152 658.59 660.962C624.299 653.809 589.492 649.408 554.5 647.802C544.52 647.352 534.53 647.129 524.53 647.132C509.11 647.152 493.693 647.725 478.28 648.852C378.11 656.212 224.46 642.422 156.86 505.562L326 177.962L388.95 339.581L409.04 391.171L464.41 315.191L493 275.962L623.2 425.232L660 343.962L914.78 551.881L928.99 563.471L930.56 564.752Z" fill="#F2F2F2"/>
<path opacity="0.1" d="M302 282.962L328 225.962L364 308.962L333 248.962L302 282.962Z" fill="black"/>
<path opacity="0.1" d="M554.5 647.802C544.52 647.352 534.53 647.129 524.53 647.132L409.04 391.172L554.5 647.802Z" fill="black"/>
<path opacity="0.1" d="M464.411 315.191L493 292.962L623 442.962L491 314.962L464.411 315.191Z" fill="black"/>
<path opacity="0.1" d="M852.79 645.032C843.959 649.716 834.778 653.708 825.33 656.972L623.2 425.232L852.79 645.032Z" fill="black"/>
<path d="M482 104.962C483.657 104.962 485 103.619 485 101.962C485 100.305 483.657 98.962 482 98.962C480.343 98.962 479 100.305 479 101.962C479 103.619 480.343 104.962 482 104.962Z" fill="#F2F2F2"/>
<path d="M399 207.962C400.657 207.962 402 206.619 402 204.962C402 203.305 400.657 201.962 399 201.962C397.343 201.962 396 203.305 396 204.962C396 206.619 397.343 207.962 399 207.962Z" fill="#F2F2F2"/>
<path d="M602 224.962C603.105 224.962 604 224.067 604 222.962C604 221.857 603.105 220.962 602 220.962C600.895 220.962 600 221.857 600 222.962C600 224.067 600.895 224.962 602 224.962Z" fill="#F2F2F2"/>
<path d="M182 269.962C183.105 269.962 184 269.067 184 267.962C184 266.857 183.105 265.962 182 265.962C180.895 265.962 180 266.857 180 267.962C180 269.067 180.895 269.962 182 269.962Z" fill="#F2F2F2"/>
<path d="M614 100.962C615.105 100.962 616 100.067 616 98.962C616 97.8574 615.105 96.962 614 96.962C612.895 96.962 612 97.8574 612 98.962C612 100.067 612.895 100.962 614 100.962Z" fill="#F2F2F2"/>
<path d="M738 196.962C739.105 196.962 740 196.067 740 194.962C740 193.857 739.105 192.962 738 192.962C736.895 192.962 736 193.857 736 194.962C736 196.067 736.895 196.962 738 196.962Z" fill="#F2F2F2"/>
<path d="M860 348.962C861.105 348.962 862 348.067 862 346.962C862 345.857 861.105 344.962 860 344.962C858.895 344.962 858 345.857 858 346.962C858 348.067 858.895 348.962 860 348.962Z" fill="#F2F2F2"/>
<path d="M306 121.222H303.24V118.462H301.76V121.222H299V122.7H301.76V125.459H303.24V122.7H306V121.222Z" fill="#F2F2F2"/>
<path d="M848 424.222H845.24V421.462H843.76V424.222H841V425.7H843.76V428.459H845.24V425.7H848V424.222Z" fill="#F2F2F2"/>
<path d="M1088 613.962C1088 630.531 844.443 687.962 544 687.962C243.557 687.962 0 630.531 0 613.962C0 597.393 243.557 627.962 544 627.962C844.443 627.962 1088 597.394 1088 613.962Z" fill="#3F3D56"/>
<path opacity="0.1" d="M1088 613.962C1088 630.531 844.443 687.962 544 687.962C243.557 687.962 0 630.531 0 613.962C0 597.393 243.557 627.962 544 627.962C844.443 627.962 1088 597.394 1088 613.962Z" fill="black"/>
<path d="M544 643.962C844.443 643.962 1088 630.531 1088 613.962C1088 597.393 844.443 583.962 544 583.962C243.557 583.962 0 597.393 0 613.962C0 630.531 243.557 643.962 544 643.962Z" fill="#3F3D56"/>
<path d="M568 571.962C568 605.099 553.225 595.962 535 595.962C516.775 595.962 502 605.099 502 571.962C502 538.825 535 475.962 535 475.962C535 475.962 568 538.825 568 571.962Z" fill="#FF6584"/>
<path opacity="0.1" d="M550 584.641C550 599.703 543.284 595.55 535 595.55C526.716 595.55 520 599.703 520 584.641C520 569.579 535 541.005 535 541.005C535 541.005 550 569.581 550 584.641Z" fill="black"/>
<path d="M572 604.962H498C493.029 604.962 489 608.991 489 613.962C489 618.933 493.029 622.962 498 622.962H572C576.971 622.962 581 618.933 581 613.962C581 608.991 576.971 604.962 572 604.962Z" fill="#2F2E41"/>
<path d="M572 586.962H498C493.029 586.962 489 590.991 489 595.962C489 600.933 493.029 604.962 498 604.962H572C576.971 604.962 581 600.933 581 595.962C581 590.991 576.971 586.962 572 586.962Z" fill="#2F2E41"/>
<path d="M137 490.528C137 545.871 171.719 590.654 214.626 590.654L137 490.528Z" fill="#3F3D56"/>
<path d="M214.626 590.654C214.626 534.689 253.371 489.403 301.252 489.403L214.626 590.654Z" fill="#6C63FF"/>
<path d="M165.125 495.545C165.125 548.115 187.265 590.654 214.625 590.654L165.125 495.545Z" fill="#6C63FF"/>
<path d="M214.626 590.654C214.626 519.143 259.409 461.277 314.752 461.277L214.626 590.654Z" fill="#3F3D56"/>
<path d="M198.3 591.36C198.3 591.36 209.309 591.021 212.626 588.66C215.943 586.299 229.56 583.477 230.383 587.265C231.206 591.053 246.927 606.109 234.498 606.21C222.069 606.311 205.619 604.274 202.308 602.257C198.997 600.24 198.3 591.36 198.3 591.36Z" fill="#A8A8A8"/>
<path opacity="0.2" d="M234.716 604.89C222.287 604.99 205.837 602.954 202.526 600.937C200.004 599.401 198.999 593.889 198.663 591.346L198.295 591.36C198.295 591.36 198.995 600.239 202.304 602.26C205.613 604.281 222.065 606.313 234.494 606.213C238.082 606.184 239.321 604.908 239.253 603.013C238.755 604.155 237.386 604.868 234.716 604.89Z" fill="black"/>
<path d="M721.429 527.062C721.429 565.091 745.286 595.862 774.77 595.862L721.429 527.062Z" fill="#3F3D56"/>
<path d="M774.769 595.863C774.769 557.407 801.392 526.288 834.294 526.288L774.769 595.863Z" fill="#6C63FF"/>
<path d="M740.755 530.509C740.755 566.633 755.968 595.863 774.769 595.863L740.755 530.509Z" fill="#6C63FF"/>
<path d="M774.769 595.863C774.769 546.724 805.542 506.963 843.569 506.963L774.769 595.863Z" fill="#3F3D56"/>
<path d="M763.548 596.348C763.548 596.348 771.113 596.115 773.392 594.492C775.671 592.869 785.028 590.93 785.592 593.534C786.156 596.138 796.96 606.483 788.42 606.552C779.88 606.621 768.576 605.222 766.301 603.836C764.026 602.45 763.548 596.348 763.548 596.348Z" fill="#A8A8A8"/>
<path opacity="0.2" d="M788.574 605.645C780.034 605.714 768.73 604.315 766.455 602.929C764.722 601.873 764.032 598.086 763.801 596.339L763.548 596.349C763.548 596.349 764.027 602.449 766.303 603.836C768.579 605.223 779.882 606.621 788.422 606.552C790.887 606.532 791.739 605.652 791.692 604.352C791.349 605.14 790.409 605.63 788.574 605.645Z" fill="black"/>
<path d="M893.813 618.699C893.813 618.699 905.173 616.97 908.313 614.108C911.453 611.246 925.203 606.62 926.53 610.441C927.857 614.262 946.024 627.888 933.163 629.548C920.302 631.208 903.01 631.157 899.328 629.483C895.646 627.809 893.813 618.699 893.813 618.699Z" fill="#A8A8A8"/>
<path opacity="0.2" d="M933.228 628.154C920.368 629.813 903.075 629.763 899.393 628.089C896.593 626.814 894.858 621.231 894.193 618.639L893.814 618.7C893.814 618.7 895.647 627.809 899.33 629.483C903.013 631.157 920.305 631.208 933.165 629.548C936.877 629.069 938.001 627.592 937.694 625.642C937.319 626.888 935.991 627.798 933.228 628.154Z" fill="black"/>
<path d="M614.26 617.881C614.26 617.881 623.847 616.422 626.497 614.006C629.147 611.59 640.752 607.686 641.871 610.911C642.99 614.136 658.323 625.636 647.471 627.036C636.619 628.436 622.023 628.394 618.916 626.981C615.809 625.568 614.26 617.881 614.26 617.881Z" fill="#A8A8A8"/>
<path opacity="0.2" d="M647.524 625.856C636.671 627.256 622.076 627.214 618.969 625.801C616.602 624.725 615.142 620.013 614.579 617.825L614.259 617.876C614.259 617.876 615.806 625.563 618.914 626.976C622.022 628.389 636.614 628.432 647.469 627.031C650.602 626.631 651.55 625.38 651.291 623.731C650.977 624.788 649.856 625.556 647.524 625.856Z" fill="black"/>
<path d="M122.389 613.09C122.389 613.09 129.852 611.954 131.916 610.074C133.98 608.194 143.016 605.154 143.885 607.665C144.754 610.176 156.693 619.128 148.243 620.218C139.793 621.308 128.432 621.275 126.013 620.175C123.594 619.075 122.389 613.09 122.389 613.09Z" fill="#A8A8A8"/>
<path opacity="0.2" d="M148.285 619.302C139.836 620.392 128.474 620.359 126.055 619.259C124.213 618.421 123.076 614.753 122.638 613.05L122.389 613.09C122.389 613.09 123.589 619.074 126.013 620.175C128.437 621.276 139.794 621.308 148.243 620.218C150.682 619.903 151.42 618.933 151.219 617.652C150.973 618.47 150.1 619.068 148.285 619.302Z" fill="black"/>
<path opacity="0.1" d="M383.7 601.318C383.7 631.538 341.576 622.191 290 622.191C238.424 622.191 196.926 631.538 196.926 601.318C196.926 571.098 239.044 564.525 290.62 564.525C342.196 564.525 383.7 571.098 383.7 601.318Z" fill="black"/>
<path d="M383.7 593.881C383.7 624.101 341.576 614.754 290 614.754C238.424 614.754 196.926 624.101 196.926 593.881C196.926 563.661 239.04 557.081 290.616 557.081C342.192 557.081 383.7 563.657 383.7 593.881Z" fill="#3F3D56"/>
<path d="M1011.99 276.226L968.411 268.312L918.957 349.309L940.745 353.266L804.488 586.083L787.753 583.044L781.78 593.206L798.504 596.244L778.279 630.812L799.261 634.622L904.76 456.955L931.284 461.772L954.577 422.138L928.141 417.336L1011.99 276.226Z" fill="#29ABE2"/>
<path d="M768.751 469.065L742.56 329.643L773.798 335.317L765.922 287.772L733.584 281.899L722.654 223.677L703.687 220.232L753.781 493.835L768.751 469.065Z" fill="#29ABE2"/>
<path d="M753.781 493.835L759.84 526.923L811.928 440.094L838.854 444.985L862.148 405.35L835.646 400.537L920.275 259.569L877.756 251.847L828.086 332.366L849.067 336.177L753.781 493.835Z" fill="#FF3F60"/>
<path d="M716.021 549.771L713.603 535.835L700.505 533.456L693.716 493.982L684.516 492.311L653.235 312.295L685.606 318.175L677.229 270.539L644.673 264.626L634.786 207.718L608.807 203L652.964 450.589L662.393 452.301L675.658 528.943L689.159 531.395L691.577 545.331L678.38 542.934L682.007 563.838L669.081 561.502L671.079 573.101L683.973 575.431L690.803 614.924L715.4 619.391L703.01 547.407L716.021 549.771Z" fill="#FF3F60"/>
<path d="M968.411 268.312L920.275 259.569L835.646 400.537L862.148 405.35L838.854 444.985L811.928 440.094L759.84 526.923L703.687 220.232L634.786 207.718L644.673 264.626L677.229 270.539L685.606 318.175L653.235 312.295L684.515 492.311L693.716 493.982L700.505 533.456L713.603 535.835L716.021 549.771L703.009 547.407L715.4 619.391L778.279 630.812L798.504 596.244L781.78 593.206L787.753 583.044L804.488 586.083L940.745 353.266L918.958 349.309L968.411 268.312Z" fill="#0C003F"/>
<path d="M680.137 402.965C701.202 399.497 714.051 371.012 708.837 339.342C703.622 307.673 682.319 284.812 661.253 288.28C640.188 291.749 627.339 320.233 632.553 351.903C637.768 383.572 659.072 406.433 680.137 402.965Z" fill="#DBDBDB"/>
<path d="M682.012 388.046C656.08 392.315 632.293 357.737 633.3 320.75C623.629 362.31 650.871 407.783 680.138 402.964C697.512 400.103 709.296 380.224 709.967 355.576C705.92 372.97 695.702 385.792 682.012 388.046Z" fill="#CECECE"/>
<path d="M673.59 395.939C691.758 392.948 702.84 368.382 698.343 341.07C693.846 313.758 675.473 294.043 657.305 297.034C639.138 300.025 628.056 324.591 632.553 351.903C637.05 379.215 655.423 398.93 673.59 395.939Z" fill="#EAE9E8"/>
<path d="M673.589 395.938C680.049 394.874 685.612 391.08 689.899 385.407C663.787 398.926 634.108 365.679 633.287 324.653C624.965 359.358 647.558 400.224 673.589 395.938Z" fill="#DBDBDB"/>
<path d="M661.287 362.731C651.203 370.999 636.172 365.804 632.927 353.602C629.041 338.989 644.104 326.348 657.893 333.131C669.184 338.686 671.428 354.415 661.287 362.731Z" fill="#656566"/>
<path d="M639.535 348.184C638.106 342.811 639.314 337.192 642.439 333.015C634.609 336.734 630.76 345.459 632.926 353.602C636.639 367.565 655.207 371.711 664.293 359.6C657.103 363.032 642.361 358.815 639.535 348.184Z" fill="#4F4F51"/>
<path d="M884.145 422.003C905.21 418.534 918.058 390.048 912.841 358.379C907.625 326.71 886.319 303.85 865.255 307.32C844.19 310.79 831.342 339.275 836.559 370.944C841.775 402.613 863.08 425.473 884.145 422.003Z" fill="#DBDBDB"/>
<path d="M886.018 407.084C860.087 411.356 836.297 376.779 837.301 339.791C827.633 381.353 854.879 426.824 884.145 422.003C901.519 419.141 913.302 399.26 913.971 374.613C909.925 392.007 899.708 404.829 886.018 407.084Z" fill="#CECECE"/>
<path d="M877.596 414.978C895.763 411.986 906.843 387.42 902.345 360.108C897.846 332.796 879.471 313.082 861.304 316.074C843.137 319.067 832.057 343.633 836.555 370.945C841.054 398.256 859.429 417.971 877.596 414.978Z" fill="#EAE9E8"/>
<path d="M877.597 414.977C884.057 413.913 889.619 410.119 893.905 404.445C867.575 418.08 838.107 384.408 837.289 343.696C828.849 378.907 851.835 419.22 877.597 414.977Z" fill="#DBDBDB"/>
<path d="M865.292 381.77C855.228 390.023 840.184 384.871 836.931 372.644C833.044 358.031 848.106 345.389 861.896 352.171C873.187 357.726 875.432 373.455 865.292 381.77Z" fill="#656566"/>
<path d="M843.538 367.225C842.109 361.852 843.317 356.233 846.442 352.056C838.612 355.776 834.764 364.501 836.93 372.644C840.65 386.63 859.228 390.729 868.297 378.64C861.108 382.072 846.366 377.856 843.538 367.225Z" fill="#4F4F51"/>
</svg>
